<svg height="95" viewBox="0 0 64 64" width="95" xmlns="http://www.w3.org/2000/svg"><g id="flat"><circle cx="49" cy="41" fill="#394d5c" r="12"/><path d="m53.9 47.32a7.941 7.941 0 0 1 -3.9 1.62h-2a7.941 7.941 0 0 1 -3.9-1.62l-1.42-1.42a7.941 7.941 0 0 1 -1.62-3.9v-2a7.976 7.976 0 0 1 1.62-3.91l1.42-1.41a7.941 7.941 0 0 1 3.9-1.62h2a7.941 7.941 0 0 1 3.9 1.62l1.42 1.42a7.941 7.941 0 0 1 1.62 3.9v2a7.941 7.941 0 0 1 -1.62 3.9z" fill="#f4f4e6"/><path d="m56.94 42h-5.53l3.91 3.9a7.953 7.953 0 0 1 -1.42 1.42l-3.9-3.91v5.53a8.363 8.363 0 0 1 -2 0v-5.53l-3.9 3.91a7.953 7.953 0 0 1 -1.42-1.42l3.91-3.9h-5.53a8.363 8.363 0 0 1 0-2h5.53l-3.91-3.91a7.9 7.9 0 0 1 1.42-1.41l3.9 3.91v-5.53a8.363 8.363 0 0 1 2 0v5.53l3.9-3.91a7.953 7.953 0 0 1 1.42 1.42l-3.91 3.9h5.53a8.363 8.363 0 0 1 0 2z" fill="#aabece"/><circle cx="15" cy="41" fill="#394d5c" r="12"/><path d="m19.9 47.32a7.941 7.941 0 0 1 -3.9 1.62h-2a7.941 7.941 0 0 1 -3.9-1.62l-1.42-1.42a7.941 7.941 0 0 1 -1.62-3.9v-2a7.976 7.976 0 0 1 1.62-3.91l1.42-1.41a7.941 7.941 0 0 1 3.9-1.62h2a7.941 7.941 0 0 1 3.9 1.62l1.42 1.42a7.941 7.941 0 0 1 1.62 3.9v2a7.941 7.941 0 0 1 -1.62 3.9z" fill="#f4f4e6"/><path d="m22.94 42h-5.53l3.91 3.9a7.953 7.953 0 0 1 -1.42 1.42l-3.9-3.91v5.53a8.363 8.363 0 0 1 -2 0v-5.53l-3.9 3.91a7.953 7.953 0 0 1 -1.42-1.42l3.91-3.9h-5.53a8.363 8.363 0 0 1 0-2h5.53l-3.91-3.91a7.9 7.9 0 0 1 1.42-1.41l3.9 3.91v-5.53a8.363 8.363 0 0 1 2 0v5.53l3.9-3.91a7.953 7.953 0 0 1 1.42 1.42l-3.91 3.9h5.53a8.363 8.363 0 0 1 0 2z" fill="#aabece"/><path d="m21 14h4v4h-4z" fill="#b11e48"/><path d="m25 14h-6a2 2 0 0 1 -2-2 2 2 0 0 1 2-2h6c4 0 5 .895 5 2 0 1.105-1 2-5 2z" fill="#394d5c"/><path d="m47 12a4 4 0 0 0 -4 4h9a2 2 0 0 1 2 2 2 2 0 0 1 -2 2h-2a2 2 0 0 0 -2 2 2 2 0 0 0 2 2h2a6 6 0 0 0 6-6 6 6 0 0 0 -6-6z" fill="#394d5c"/><path d="m48 23.889v-7.889h-5v4h-17.5l-.5-2h-3.977l-6.023 21a2 2 0 0 0 0 4h15l14-18 3 16h4zm-29 15.111 4-14 2.977 14zm11-2-3-13h13s-8.609 11.5-10 13z" fill="#e4544f"/><circle cx="31" cy="41" fill="#7fcac9" r="4"/><path d="m30 40h2v2h-2z" fill="#f4f4e6"/><g fill="#394d5c"><circle cx="15" cy="41" r="2"/><circle cx="49" cy="41" r="2"/></g></g></svg>