<svg height="95" viewBox="0 0 64 64" width="95" xmlns="http://www.w3.org/2000/svg"><g id="flat"><path d="m46 15h9v8h-9z" fill="#e33e5c" transform="matrix(-1 0 0 -1 101 38)"/><circle cx="52" cy="52" fill="#394d5c" r="9"/><circle cx="52" cy="52" fill="#f4f4e6" r="5"/><path d="m41 52h11l7-6v-2a4 4 0 0 0 -4-4h-9l-7 8h-9a2 2 0 0 1 -2-2v-9h-14v15h11l2 3h12z" fill="#e33e5c"/><path d="m14 43a9 9 0 0 0 -9 9h18a9 9 0 0 0 -9-9z" fill="#b11e48"/><path d="m14 61a9 9 0 0 0 9-9h-18a9 9 0 0 0 9 9z" fill="#394d5c"/><path d="m14 57a5 5 0 0 0 5-5h-10a5 5 0 0 0 5 5z" fill="#f4f4e6"/><path d="m13 47h2v2h-2z" fill="#f4f4e6"/><path d="m18 33h14v4h-14z" fill="#ad6327"/><path d="m6 37h8v6h-8z" fill="#50b4f8"/><path d="m52 15h4v8h-4z" fill="#f9bb4b" transform="matrix(-1 0 0 -1 108 38)"/><path d="m42 17h4v4h-4z" fill="#ffd782" transform="matrix(-1 0 0 -1 88 38)"/><path d="m46 40h9l-3-17h-6z" fill="#b11e48"/><path d="m18 29v4h14v11h4v-15z" fill="#195c85"/><path d="m32 44h5a2 2 0 0 1 2 2v2a0 0 0 0 1 0 0h-7a0 0 0 0 1 0 0v-4a0 0 0 0 1 0 0z" fill="#394d5c"/><path d="m18 16h10v13h-10z" fill="#8ec13f"/><path d="m30 21-8-2v4l8 2 12-4v-4z" fill="#3e8051"/><path d="m20 40h4v2h-4z" fill="#f4f4e6"/><path d="m3 22h15v15h-15z" fill="#d3843d"/><path d="m18 9h10v7h-10z" fill="#ffd782"/><g fill="#fcf05a"><path d="m8 25h2v2h-2z"/><path d="m10 27h2v2h-2z"/><path d="m8 29h2v2h-2z"/><path d="m6 27h2v2h-2z"/></g><path d="m8 33h2v4h-2z" fill="#f9bb4b"/><path d="m9 21.228v-1.228a6 6 0 0 0 -6-6v2a6 6 0 0 0 4.859 5.892z" fill="#8ec13f"/><path d="m21 3a3 3 0 0 0 -3 3v3.99a2.01 2.01 0 0 0 2.01 2.01h.98a2.01 2.01 0 0 0 2.01-2.01v-.99h5v-3a3 3 0 0 0 -3-3z" fill="#394d5c"/><path d="m6 22h2a6 6 0 0 0 6-6h-2a6 6 0 0 0 -6 6z" fill="#c8d952"/></g></svg>