<svg height="100pt" viewBox="0 0 496 496.01113" width="100pt" xmlns="http://www.w3.org/2000/svg"><path d="m456.003906 400.011719h-416c-17.671875 0-32-14.328125-32-32v-240c0-17.671875 14.328125-32 32-32h416c17.671875 0 32 14.328125 32 32v240c0 17.671875-14.328125 32-32 32zm0 0" fill="#bab8b9"/><path d="m456.003906 400.011719h-64v-304h64c17.671875 0 32 14.328125 32 32v240c0 17.671875-14.328125 32-32 32zm0 0" fill="#575c61"/><path d="m72.003906 96.011719h-32c-17.671875 0-32 14.328125-32 32v240c0 17.671875 14.328125 32 32 32h32" fill="#575c61"/><path d="m456.003906 248.011719c0 8.835937-7.160156 16-16 16-8.835937 0-16-7.164063-16-16 0-8.835938 7.164063-16 16-16 8.839844 0 16 7.164062 16 16zm0 0" fill="#bab8b9"/><path d="m304.003906 264.011719c0 8.835937-7.160156 16-16 16-8.835937 0-16-7.164063-16-16 0-8.835938 7.164063-16 16-16 8.839844 0 16 7.164062 16 16zm0 0" fill="#f8cf6a"/><path d="m360.003906 232.011719c0 8.835937-7.160156 16-16 16-8.835937 0-16-7.164063-16-16 0-8.835938 7.164063-16 16-16 8.839844 0 16 7.164062 16 16zm0 0" fill="#f8cf6a"/><path d="m360.003906 80.011719c0-41.351563-34.855468-74.5625-76.789062-71.847657-38.273438 2.480469-67.210938 35.96875-67.210938 74.3125v2.046876c0 17.894531 5.457032 35.375 15.648438 50.085937l56.351562 81.402344 56.355469-81.402344c10.191406-14.710937 15.644531-32.191406 15.644531-50.085937zm0 0" fill="#ca5057"/><path d="m328.003906 80.011719c0 22.089843-17.90625 40-40 40-22.089844 0-40-17.910157-40-40 0-22.09375 17.910156-40 40-40 22.09375 0 40 17.90625 40 40zm0 0" fill="#fff"/><path d="m200.003906 384.011719-16-48v-104c0-8.839844 7.160156-16 16-16s16 7.160156 16 16v88l16-24h16l16 24h16l16 24h16l16 24v48l-32 40v40h-88v-40l-32-40-8-40 24-16" fill="#dcb29c"/><path d="m296.003906 368.011719-16-24h-16l-16-24h-16l-16 24v-88c0-8.839844-7.160156-16-16-16s-16 7.160156-16 16v80l8 24-6.542968 4.359375 6.542968 19.640625-19.765625 13.175781 3.765625 18.824219 32 40v40h88v-40l32-40v-24l-16-24zm0 0" fill="#f3c6b0"/><path d="m216.003906 496.011719h-16v-37.191407l-30.246094-37.808593c-.800781-1-1.34375-2.167969-1.601562-3.425781l-8-40c-.640625-3.175782.707031-6.429688 3.410156-8.222657l24-16 8.871094 13.3125-19.542969 13.023438 6.566407 32.839843 30.785156 38.480469c1.144531 1.414063 1.757812 3.175781 1.757812 4.992188zm0 0"/><path d="m304.003906 496.011719h-16v-40c0-1.816407.617188-3.578125 1.753906-5l30.246094-37.808594v-42.777344l-12.277344-18.414062h-11.722656c-2.671875 0-5.167968-1.335938-6.65625-3.5625l-13.621094-20.4375h-11.722656c-2.671875 0-5.167968-1.335938-6.65625-3.5625l-13.621094-20.4375h-7.441406l-13.625 20.4375c-1.957031 2.9375-5.613281 4.242187-8.972656 3.21875-3.371094-1.015625-5.683594-4.136719-5.683594-7.65625v-88c0-4.410157-3.589844-8-8-8-4.40625 0-8 3.589843-8 8v102.703125l15.59375 46.769531-15.175781 5.0625-16-48c-.28125-.824219-.417969-1.679687-.417969-2.535156v-104c0-13.234375 10.769532-24 24-24 13.234375 0 24 10.765625 24 24v61.574219l1.34375-2.015626c1.488282-2.222656 3.984375-3.558593 6.65625-3.558593h16c2.671875 0 5.167969 1.335937 6.65625 3.558593l13.625 20.441407h11.71875c2.671875 0 5.167969 1.335937 6.65625 3.558593l13.625 20.441407h11.71875c2.671875 0 5.167969 1.335937 6.65625 3.558593l16 24c.875 1.3125 1.34375 2.863282 1.34375 4.441407v48c0 1.816406-.613281 3.574219-1.75 5l-30.25 37.808593zm0 0"/><path d="m176.003906 408.011719h-136c-22.054687 0-39.99999975-17.945313-39.99999975-40v-240c0-22.054688 17.94531275-40 39.99999975-40h176v16h-176c-13.230468 0-24 10.765625-24 24v240c0 13.230469 10.769532 24 24 24h136zm0 0"/><path d="m456.003906 408.011719h-128v-16h128c13.234375 0 24-10.769531 24-24v-240c0-13.234375-10.765625-24-24-24h-96v-16h96c22.058594 0 40 17.945312 40 40v240c0 22.054687-17.941406 40-40 40zm0 0"/><path d="m440.003906 272.011719c-13.230468 0-24-10.769531-24-24 0-13.234375 10.769532-24 24-24 13.234375 0 24 10.765625 24 24 0 13.230469-10.765625 24-24 24zm0-32c-4.40625 0-8 3.589843-8 8 0 4.40625 3.59375 8 8 8 4.410156 0 8-3.59375 8-8 0-4.410157-3.589844-8-8-8zm0 0"/><path d="m384.003906 96.011719h16v304h-16zm0 0"/><path d="m32.003906 224.011719h16v48h-16zm0 0"/><path d="m64.003906 96.011719h16v304h-16zm0 0"/><path d="m288.003906 224.011719c-2.621094 0-5.078125-1.289063-6.574218-3.449219l-56.351563-81.398438c-11.167969-16.128906-17.074219-35.023437-17.074219-54.640624v-2.046876c0-43.433593 32.808594-79.585937 74.691406-82.296874 22.421876-1.472657 43.703126 6.167968 60.007813 21.457031 16.078125 15.070312 25.300781 36.351562 25.300781 58.375v4.511719c0 19.617187-5.902344 38.511718-17.070312 54.648437l-56.351563 81.398437c-1.496093 2.152344-3.953125 3.441407-6.578125 3.441407zm.042969-208c-1.433594 0-2.875.046875-4.320313.144531-33.488281 2.167969-59.722656 31.292969-59.722656 66.320312v2.046876c0 16.34375 4.921875 32.09375 14.226563 45.535156l49.773437 71.898437 49.777344-71.898437c9.304688-13.441406 14.222656-29.191406 14.222656-45.535156v-4.511719c0-17.878907-7.183594-34.472657-20.238281-46.703125-11.992187-11.242188-27.382813-17.296875-43.71875-17.296875zm0 0"/><path d="m288.003906 128.011719c-26.46875 0-48-21.527344-48-48 0-26.472657 21.53125-48 48-48 26.472656 0 48 21.527343 48 48 0 26.472656-21.527344 48-48 48zm0-80c-17.644531 0-32 14.351562-32 32 0 17.648437 14.355469 32 32 32 17.648438 0 32-14.351563 32-32 0-17.648438-14.351562-32-32-32zm0 0"/><path d="m280.003906 216.011719h16v32h-16zm0 0"/><path d="m288.003906 288.011719c-13.230468 0-24-10.769531-24-24 0-13.234375 10.769532-24 24-24 13.234375 0 24 10.765625 24 24 0 13.230469-10.765625 24-24 24zm0-32c-4.40625 0-8 3.589843-8 8 0 4.40625 3.59375 8 8 8 4.410156 0 8-3.59375 8-8 0-4.410157-3.589844-8-8-8zm0 0"/><path d="m344.003906 256.011719c-13.230468 0-24-10.769531-24-24 0-13.234375 10.769532-24 24-24 13.234375 0 24 10.765625 24 24 0 13.230469-10.765625 24-24 24zm0-32c-4.40625 0-8 3.589843-8 8 0 4.40625 3.59375 8 8 8 4.410156 0 8-3.59375 8-8 0-4.410157-3.589844-8-8-8zm0 0"/><path d="m352.003906 216.011719h-16v-24h-24v-16h32c4.417969 0 8 3.582031 8 8zm0 0"/><path d="m168.003906 216.011719h-16c0-22.054688 17.945313-40 40-40v16c-13.230468 0-24 10.765625-24 24zm0 0"/><path d="m136.003906 216.011719h-16c0-39.695313 32.304688-72 72-72v16c-30.878906 0-56 25.121093-56 56zm0 0"/></svg>